<svg id="Layer_1" enable-background="new 0 0 512 512" height="512" viewBox="0 0 512 512" width="512" xmlns="http://www.w3.org/2000/svg"><g><g fill="#ffc77c"><path d="m223.866 512c-8.284 0-15-6.716-15-15v-80.333c0-8.284 6.716-15 15-15s15 6.716 15 15v80.333c0 8.284-6.716 15-15 15z"/><path d="m223.866 110.333c-8.284 0-15-6.716-15-15v-80.333c0-8.284 6.716-15 15-15s15 6.716 15 15v80.333c0 8.285-6.716 15-15 15z"/><path d="m159.6 512c-8.284 0-15-6.716-15-15v-80.333c0-8.284 6.716-15 15-15s15 6.716 15 15v80.333c0 8.284-6.716 15-15 15z"/><path d="m159.6 110.333c-8.284 0-15-6.716-15-15v-80.333c0-8.284 6.716-15 15-15s15 6.716 15 15v80.333c0 8.285-6.716 15-15 15z"/><path d="m95.333 238.867h-80.333c-8.284 0-15-6.716-15-15s6.716-15 15-15h80.333c8.284 0 15 6.716 15 15s-6.716 15-15 15z"/><path d="m95.333 367.4h-80.333c-8.284 0-15-6.716-15-15s6.716-15 15-15h80.333c8.284 0 15 6.716 15 15s-6.716 15-15 15z"/><path d="m95.333 303.133h-80.333c-8.284 0-15-6.716-15-15s6.716-15 15-15h80.333c8.284 0 15 6.716 15 15s-6.716 15-15 15z"/><path d="m95.333 174.6h-80.333c-8.284 0-15-6.716-15-15s6.716-15 15-15h80.333c8.284 0 15 6.716 15 15s-6.716 15-15 15z"/><path d="m95.333 0c-8.284 0-15 6.716-15 15v65.333h-65.333c-8.284 0-15 6.716-15 15s6.716 15 15 15h80.333c8.284 0 15-6.716 15-15v-80.333c0-8.284-6.716-15-15-15z"/><path d="m95.333 401.667h-80.333c-8.284 0-15 6.716-15 15s6.716 15 15 15h65.333v65.333c0 8.284 6.716 15 15 15s15-6.716 15-15v-80.333c0-8.285-6.716-15-15-15z"/></g><path d="m352.4 512c-8.284 0-15-6.716-15-15v-80.333c0-8.284 6.716-15 15-15s15 6.716 15 15v80.333c0 8.284-6.715 15-15 15z" fill="#fb9745"/><path d="m352.4 110.333c-8.284 0-15-6.716-15-15v-80.333c0-8.284 6.716-15 15-15s15 6.716 15 15v80.333c0 8.285-6.715 15-15 15z" fill="#fb9745"/><path d="m288.134 512c-8.284 0-15-6.716-15-15v-80.333c0-8.284 6.716-15 15-15s15 6.716 15 15v80.333c0 8.284-6.716 15-15 15z" fill="#fb9745"/><path d="m288.134 110.333c-8.284 0-15-6.716-15-15v-80.333c0-8.284 6.716-15 15-15s15 6.716 15 15v80.333c0 8.285-6.716 15-15 15z" fill="#fb9745"/><path d="m497 238.867h-80.333c-8.284 0-15-6.716-15-15s6.716-15 15-15h80.333c8.284 0 15 6.716 15 15s-6.716 15-15 15z" fill="#fb9745"/><path d="m497 80.333h-65.333v-65.333c0-8.284-6.716-15-15-15s-15 6.716-15 15v80.333c0 8.284 6.716 15 15 15h80.333c8.284 0 15-6.716 15-15s-6.716-15-15-15z" fill="#fb9745"/><path d="m497 367.4h-80.333c-8.284 0-15-6.716-15-15s6.716-15 15-15h80.333c8.284 0 15 6.716 15 15s-6.716 15-15 15z" fill="#fb9745"/><path d="m497 303.133h-80.333c-8.284 0-15-6.716-15-15s6.716-15 15-15h80.333c8.284 0 15 6.716 15 15s-6.716 15-15 15z" fill="#fb9745"/><path d="m497 174.6h-80.333c-8.284 0-15-6.716-15-15s6.716-15 15-15h80.333c8.284 0 15 6.716 15 15s-6.716 15-15 15z" fill="#fb9745"/><path d="m497 401.667h-80.333c-8.284 0-15 6.716-15 15v80.333c0 8.284 6.716 15 15 15s15-6.716 15-15v-65.333h65.333c8.284 0 15-6.716 15-15s-6.716-15-15-15z" fill="#fb9745"/><path d="m416.667 431.667h-321.334c-8.284 0-15-6.716-15-15v-321.334c0-8.284 6.716-15 15-15h321.334c8.284 0 15 6.716 15 15v321.333c0 8.285-6.716 15.001-15 15.001z" fill="#413a55"/><path d="m416.667 80.333h-160.667v351.333h160.667c8.284 0 15-6.716 15-15v-321.333c0-8.284-6.716-15-15-15z" fill="#292845"/><path d="m222.675 203.845-37.155 37.155h-105.187v30h111.4c3.978 0 7.793-1.581 10.606-4.394l41.548-41.548c5.858-5.858 5.858-15.355 0-21.213-5.856-5.858-15.354-5.858-21.212 0z" fill="#fb9745"/><path d="m309.66 245.394-41.548 41.548c-5.858 5.858-5.858 15.355 0 21.213 5.856 5.857 15.355 5.859 21.213 0l37.155-37.155h105.187v-30h-111.4c-3.978 0-7.794 1.581-10.607 4.394z" fill="#fc5e25"/><circle cx="256" cy="320.267" fill="#ffc77c" r="47.133"/><path d="m256 273.133c25.989 0 47.133 21.144 47.133 47.133s-21.144 47.134-47.133 47.134z" fill="#fb9745"/><circle cx="256" cy="191.733" fill="#ffc77c" r="47.133"/><path d="m256 144.6c25.989 0 47.133 21.144 47.133 47.133s-21.144 47.134-47.133 47.134z" fill="#fb9745"/></g></svg>